<svg width="78" height="105" viewBox="0 0 128 128" fill="none" xmlns="http://www.w3.org/2000/svg">
<path d="M0.642904 84.811C0.642904 75.5288 6.4091 66.9498 17.6602 66.9498C34.115 66.9498 34.115 86.4987 48.1789 86.4987C54.7889 86.4987 62.1022 82.2795 62.1022 71.8722C62.1022 42.0567 7.1123 62.8713 7.1123 27.0083C7.1123 8.30336 23.989 0.286926 40.4438 0.286926C56.7579 0.286926 71.3843 9.00655 71.3843 21.5234C71.3843 28.9773 66.0401 32.0714 60.977 32.0714C47.1944 32.0714 52.9606 7.45952 38.0529 7.45952C31.4429 7.45952 29.3333 11.6787 29.3333 15.8979C29.3333 36.2905 77.2912 42.6193 77.2912 75.8101C77.2912 85.7955 72.7907 95.9215 57.6017 95.9215C45.788 95.9215 37.4903 104.922 24.4109 104.922C13.0191 104.922 0.642904 98.3123 0.642904 84.811Z" fill="#484187"/>
</svg>
